<svg xmlns="http://www.w3.org/2000/svg" viewBox="0 0 32 32" id="mouse"><g data-name="Layer 2"><path d="M17.16,2H14.84A8.84,8.84,0,0,0,6,10.84V21.16A8.84,8.84,0,0,0,14.84,30h2.31A8.84,8.84,0,0,0,26,21.16V10.84A8.84,8.84,0,0,0,17.16,2ZM16,24.77a1,1,0,1,1,1-1A1,1,0,0,1,16,24.77ZM18,14a2,2,0,0,1-4,0V8a2,2,0,0,1,4,0Z"></path><path d="M17.16,31H14.84A9.86,9.86,0,0,1,5,21.16V10.84A9.86,9.86,0,0,1,14.84,1h2.31A9.86,9.86,0,0,1,27,10.84V21.16A9.86,9.86,0,0,1,17.16,31ZM14.84,3A7.85,7.85,0,0,0,7,10.84V21.16A7.85,7.85,0,0,0,14.84,29h2.31A7.85,7.85,0,0,0,25,21.16V10.84A7.85,7.85,0,0,0,17.16,3Z"></path></g></svg>